#!OML:ASF X:\für Bonn\!DataBase\2005_08_12_Daniel\c3d\Daniel.ASF
:FULLY-SPECIFIED
:DEGREES
250
root 0.345857 17.5375 -0.478565 170.288 -4.25243 -180.326
lowerback 31.0425 -1.66474 6.46697
upperback 10.0358 -3.14347 -2.11343
thorax -5.90894 -2.57706 -4.89925
lowerneck 3.5332 1.31198 -1.69966
upperneck 15.5461 0.823777 -3.17203
head 4.51661 -0.344899 -0.792289
rclavicle -8.74653e-015 6.95746e-015
rhumerus 148.175 -180.233 -270.096
rradius 18.5189
rwrist 12.512
rhand -16.861 15.8694
rfingers 7.12502
rthumb 9.36943 -13.9024
lclavicle -8.74653e-015 6.95746e-015
lhumerus -21.5396 17.2548 82.0726
lradius 30.7749
lwrist -13.2538
lhand -14.7133 -4.66021
lfingers 7.12502
lthumb 11.4413 25.0076
rfemur -0.296414 4.3721 21.1591
rtibia 26.7555
rfoot -20.408 -11.7291
rtoes -10.3328
lfemur -4.48245 -11.7836 -19.1289
ltibia 34.9421
lfoot -21.0712 0.846511
ltoes -12.3678
251
root 0.367916 17.5421 -0.52229 170.171 -4.24675 -180.269
lowerback 30.4172 -1.72151 6.29172
upperback 9.83923 -3.19388 -2.08383
thorax -5.85379 -2.56555 -4.76059
lowerneck 3.40399 1.49149 -1.67537
upperneck 15.9155 1.04248 -3.26022
head 4.68308 -0.267672 -0.826938
rclavicle -1.83876e-014 4.96962e-015
rhumerus 147.875 -180.289 -270.151
rradius 18.6563
rwrist 12.4163
rhand -16.5067 15.7769
rfingers 7.12502
rthumb 9.71129 -13.9793
lclavicle -1.83876e-014 4.96962e-015
lhumerus -21.4214 17.4292 82.2542
lradius 30.9896
lwrist -13.0234
lhand -14.7749 -4.93085
lfingers 7.12502
lthumb 11.3818 24.7403
rfemur 0.240271 4.7467 21.4476
rtibia 26.3614
rfoot -20.5559 -12.1172
rtoes -10.2751
lfemur -4.02817 -11.9241 -19.0686
ltibia 34.6878
lfoot -21.1844 0.980839
ltoes -12.5784
252
root 0.391026 17.545 -0.568971 170.051 -4.29039 -180.201
lowerback 29.7378 -1.78558 6.14172
upperback 9.68708 -3.25991 -2.05649
thorax -5.72106 -2.56236 -4.63806
lowerneck 3.26378 1.64515 -1.59501
upperneck 16.2372 1.23623 -3.37422
head 4.83605 -0.197308 -0.880084
rclavicle -1.64991e-014 1.53064e-014
rhumerus 147.656 -180.377 -270.235
rradius 18.7668
rwrist 12.2183
rhand -16.2886 15.7455
rfingers 7.12502
rthumb 9.92173 -14.0007
lclavicle -1.64991e-014 1.53064e-014
lhumerus -21.2598 17.4512 82.4459
lradius 31.222
lwrist -12.7271
lhand -14.7585 -5.14203
lfingers 7.12502
lthumb 11.3976 24.5282
rfemur 0.789184 5.07435 21.7475
rtibia 25.99
rfoot -20.742 -12.5197
rtoes -10.169
lfemur -3.57613 -12.0997 -18.9975
ltibia 34.4532
lfoot -21.2983 1.07489
ltoes -12.5877
253
root 0.412613 17.544 -0.612571 169.945 -4.268 -180.147
lowerback 29.1007 -1.83771 5.98607
upperback 9.517 -3.30866 -2.03116
thorax -5.62221 -2.55228 -4.51988
lowerneck 3.16566 1.80963 -1.53808
upperneck 16.5458 1.44131 -3.49551
head 4.97749 -0.124178 -0.931181
rclavicle -9.83984e-015 9.14409e-015
rhumerus 147.445 -180.364 -270.257
rradius 18.8765
rwrist 12.1494
rhand -16.0918 15.639
rfingers 7.12502
rthumb 10.1116 -14.0981
lclavicle -9.83984e-015 9.14409e-015
lhumerus -21.1481 17.5294 82.6461
lradius 31.48
lwrist -12.5159
lhand -14.7399 -5.31075
lfingers 7.12502
lthumb 11.4156 24.3585
rfemur 1.28525 5.47312 22.0452
rtibia 25.6545
rfoot -20.8922 -12.9121
rtoes -10.0069
lfemur -3.16419 -12.2114 -18.9356
ltibia 34.2536
lfoot -21.3995 1.19677
ltoes -12.803
254
root 0.433822 17.5454 -0.65527 169.837 -4.23736 -180.092
lowerback 28.4747 -1.88012 5.81966
upperback 9.35912 -3.35028 -1.9779
thorax -5.50814 -2.54098 -4.36784
lowerneck 2.92066 1.97105 -1.48043
upperneck 17.3526 1.67938 -3.71737
head 4.74511 -0.0588708 -0.900999
rclavicle 2.64384e-014 -1.70955e-014
rhumerus 147.311 -180.319 -270.217
rradius 18.9312
rwrist 12.1285
rhand -15.9673 15.5579
rfingers 7.12502
rthumb 10.2317 -14.1733
lclavicle 2.64384e-014 -1.70955e-014
lhumerus -21.0186 17.601 82.8891
lradius 31.7272
lwrist -12.3584
lhand -14.7568 -5.41445
lfingers 7.12502
lthumb 11.3993 24.2557
rfemur 1.76283 5.86368 22.3502
rtibia 25.3424
rfoot -21.0574 -13.3111
rtoes -10.036
lfemur -2.76073 -12.3106 -18.8714
ltibia 34.074
lfoot -21.527 1.31528
ltoes -12.9388
255
root 0.455013 17.5451 -0.69725 169.73 -4.2151 -180.039
lowerback 27.8698 -1.92938 5.66865
upperback 9.19639 -3.39622 -1.94098
thorax -5.40781 -2.53223 -4.24183
lowerneck 2.91151 0.0852359 -1.5107
upperneck 17.4461 2.46853 -4.30881
head 4.80442 1.52026 -0.950632
rclavicle 6.75868e-015 1.63003e-014
rhumerus 147.143 -180.143 -270.161
rradius 19.013
rwrist 12.1444
rhand -15.9267 15.4699
rfingers 7.12502
rthumb 10.2708 -14.2593
lclavicle 6.75868e-015 1.63003e-014
lhumerus -20.9326 17.6387 83.1073
lradius 31.9843
lwrist -12.2722
lhand -14.724 -5.53643
lfingers 7.12502
lthumb 11.4309 24.132
rfemur 2.22116 6.23486 22.6464
rtibia 25.0672
rfoot -21.2516 -13.6697
rtoes -9.89636
lfemur -2.38057 -12.4057 -18.8072
ltibia 33.9187
lfoot -21.6386 1.41806
ltoes -13.0652
256
root 0.475678 17.545 -0.738357 169.647 -4.17252 -179.982
lowerback 27.2533 -1.97436 5.50175
upperback 9.04078 -3.44247 -1.88792
thorax -5.28921 -2.52463 -4.09047
lowerneck 2.83291 0.189166 -1.44042
upperneck 17.7047 2.69364 -4.47876
head 4.90403 1.63449 -1.00459
rclavicle 7.7526e-015 1.19271e-014
rhumerus 147.091 -179.934 -270.045
rradius 18.9825
rwrist 12.2391
rhand -15.9437 15.3869
rfingers 7.12502
rthumb 10.2545 -14.3431
lclavicle 7.7526e-015 1.19271e-014
lhumerus -20.8288 17.6085 83.3646
lradius 32.2564
lwrist -12.1279
lhand -14.7544 -5.61481
lfingers 7.12502
lthumb 11.4016 24.0552
rfemur 2.64532 6.58645 22.9394
rtibia 24.7942
rfoot -21.4266 -13.9987
rtoes -9.76097
lfemur -2.03694 -12.4427 -18.7195
ltibia 33.7771
lfoot -21.7688 1.48578
ltoes -13.2789
